<?xml version="1.0" encoding="utf-8"?>
<!-- Generator: Adobe Illustrator 22.0.1, SVG Export Plug-In . SVG Version: 6.00 Build 0)  -->
<svg version="1.1" id="Слой_1" xmlns="http://www.w3.org/2000/svg" xmlns:xlink="http://www.w3.org/1999/xlink" x="0px" y="0px"
	preserveAspectRatio="none" viewBox="0 0 1518 868.2" style="enable-background:new 0 0 1518 868.2;" xml:space="preserve">
<style type="text/css">
	.st0{clip-path:url(#SVGID_2_);}
	.st1{fill:#F5F2FC;}
	.st2{fill:#EDE7FA;}
</style>
<g>
	<defs>
		<rect id="SVGID_1_" width="1518" height="868.2"/>
	</defs>
	<clipPath id="SVGID_2_">
		<use xlink:href="#SVGID_1_"  style="overflow:visible;"/>
	</clipPath>
	<g transform="translate(-0.083 -0.273)" class="st0">
		<path class="st1" d="M1618.3,92c61.5,24.2,41-44.6-228.8-81.9S977.2,52.9,773,57.9S492.9,6.1,328.7,0.7S-38.7,55.6-58.7,71.5
			s-64.2,781-64.2,781S-4.7,776.6,180,776.6s78.2,92.7,390.7,90.5c186.5,0,200.4-65.2,383.1-65.2s135.2,78.1,375.3,65.2
			s188.9-47.1,188.9-47.1S1556.8,67.8,1618.3,92z"/>
		<path class="st2" d="M-19.3,97.1c-61.6,24.1,8.3-146,295.3-73s385.5-5,589.7,0S1195.9,76.8,1291,73s216.1-64.8,236.2-48.9
			s-6.2,798.8-6.2,798.8s41.5-24.1-143.2-24.1S1214.9,841,1028.4,841s-200.4-36.1-383.1-36.1S379.5,841,270,841
			s-335.5-21.3-335.5-21.3S42.3,73-19.3,97.1z"/>
	</g>
</g>
</svg>
