<svg xmlns="http://www.w3.org/2000/svg" xmlns:xlink="http://www.w3.org/1999/xlink" viewBox="0 0 1436.8 1383" preserveAspectRatio="none">
  <defs>
    <path id="a" d="M0 0h1436.8v1383H0z"/>
  </defs>
  <clipPath id="b">
    <use xlink:href="#a" overflow="visible"/>
  </clipPath>
  <g transform="translate(-.501)" clip-path="url(#b)">
    <path
      d="M1537.5 104.1c61.5 41.2-87.9-82.4-371.9-82.4S780.4 60.5 576.2 69.1s-183.6-58.7-347.8-68-348 40.8-368 68 136.9 1276 136.9 1276-41.5-41.2 143.2-41.2 162.8 72.1 349.4 72.1 200.4-61.8 383.1-61.8 265.8 61.8 375.3 61.8 188.9-30.9 188.9-30.9 38.7-1282.2 100.3-1241z"
      fill="#f5f2fc"/>
    <path
      d="M-100.1 110.4C-161.7 151.6-12.2 28 271.8 28s363.8 73.8 568 82.4 274-55.3 369.2-61.8 211.1-6.5 231.1 20.6 0 1282.9 0 1282.9 41.5-41.2-143.2-41.2S1134 1383 947.5 1383s-200.4-61.8-383.1-61.8-265.8 61.8-375.2 61.8-189-30.9-189-30.9S-38.6 69.2-100.1 110.4z"
      fill="#ede7fa"/>
  </g>
</svg>
