<?xml version="1.0" encoding="utf-8"?>
<!-- Generator: Adobe Illustrator 22.1.0, SVG Export Plug-In . SVG Version: 6.00 Build 0)  -->
<svg version="1.1" xmlns="http://www.w3.org/2000/svg" xmlns:xlink="http://www.w3.org/1999/xlink" x="0px" y="0px"
	 viewBox="0 0 600 252" style="enable-background:new 0 0 600 252;" xml:space="preserve">
<style type="text/css">
	.st0{opacity:0.1;clip-path:url(#SVGID_2_);}
	.st1{fill:none;stroke:#9B7DE8;stroke-width:2;stroke-miterlimit:10;}
</style>
<g id="Слой_1">
</g>
<g id="Слой_2">
	<g>
		<defs>
			<rect id="SVGID_1_" width="600" height="252"/>
		</defs>
		<clipPath id="SVGID_2_">
			<use xlink:href="#SVGID_1_"  style="overflow:visible;"/>
		</clipPath>
		<g transform="translate(39 654)" class="st0">
			<path class="st1" d="M9.3-408.3C42.1-503.6,54.1-591.5,252-565s107.5-122,277-72s213,135.7,213,196.7S835.6-166,592.3-166
				S200.6,25.8,120.7-184S-23.6-312.9,9.3-408.3z"/>
			<path class="st1" d="M39.6-404.8C69.7-492.4,80.7-573,262.5-548.7s98.7-112,254.4-66.1c155.7,45.9,195.6,124.6,195.6,180.6
				s86,251.9-137.5,251.9S215.3-6.3,141.9-199S9.4-317.3,39.6-404.8z"/>
			<path class="st1" d="M74.7-400.8c27.1-78.4,36.9-150.6,199.9-128.8c163,21.7,88.5-100.3,228.1-59.2s175.4,111.6,175.4,161.7
				s77.1,225.5-123.3,225.5S232.3-44.1,166.5-216.5S47.7-322.4,74.7-400.8z"/>
			<path class="st1" d="M119.7-395.8c23.1-66.8,31.5-128.4,170.5-109.9c139,18.5,75.5-85.5,194.5-50.5
				c119.1,35,149.6,95.1,149.6,137.8S700-226,529.1-226s-275,134.4-331.2-12.6S96.6-328.9,119.7-395.8z"/>
			<path class="st1" d="M164.6-390.7c19.1-55.3,26-106.2,141.1-90.9c115,15.3,62.5-70.7,161-41.7s123.8,78.7,123.8,114
				s54.4,159-87,159s-227.6,111.2-274-10.4S145.5-335.5,164.6-390.7z"/>
			<path class="st1" d="M199.8-386.7c16-46.1,21.8-88.6,118-75.8c96.2,12.8,52.3-59,134.7-34.8c82.4,24.2,103.6,65.6,103.6,95.1
				c0,29.5,45.5,132.7-72.8,132.7s-190.4,92.8-229.3-8.7S183.8-340.6,199.8-386.7z"/>
			<path class="st1" d="M239.8-382.3c12.4-35.9,16.9-69,91.8-59c74.9,10,40.7-46,104.8-27.1s80.6,51.1,80.6,74.1
				S552.4-291,460.4-291s-148.1,72.3-178.4-6.8S227.4-346.4,239.8-382.3z"/>
			<path class="st1" d="M266.2-379.3c10.1-29.1,13.8-56,74.6-47.9c60.8,8.1,33-37.3,85.1-22c52.1,15.3,65.4,41.5,65.4,60.1
				s28.8,83.8-46,83.8s-120.3,58.6-144.8-5.5S256.1-350.2,266.2-379.3z"/>
			<path class="st1" d="M295.5-376.1c7.5-21.7,10.2-41.6,55.4-35.6c45.1,6,24.5-27.7,63.2-16.4c38.7,11.4,48.6,30.8,48.6,44.7
				c0,13.8,21.4,62.3-34.2,62.3s-89.3,43.6-107.6-4.1C302.7-372.8,288-354.4,295.5-376.1z"/>
			<path class="st1" d="M325.8-372.6c4.8-13.9,6.6-26.6,35.5-22.8c29,3.8,15.7-17.7,40.6-10.5c24.8,7.3,31.2,19.7,31.2,28.6
				s13.7,39.8-21.9,39.8s-57.4,27.9-69.1-2.6C330.4-370.6,321-358.8,325.8-372.6z"/>
			<path class="st1" d="M343.4-370.7c3.3-9.4,4.4-18.1,24-15.5c19.6,2.6,10.6-12.1,27.4-7.1s21.1,13.4,21.1,19.5
				c0,6,9.3,27.1-14.8,27.1c-24.1,0-38.8,19-46.7-1.8S340.1-361.3,343.4-370.7z"/>
		</g>
	</g>
</g>
</svg>
