<svg xmlns="http://www.w3.org/2000/svg" width="857.243" height="635.212" viewBox="0 0 857.243 635.212"><g transform="translate(856.683 0.557) rotate(180)" opacity="0.1"><path d="M-9.891,269.973C-46.946,162.285-60.408,63.125-283.568,93S-404.748-44.743-595.894,11.709s-240.148,153.25-240.148,222.054S-941.593,543.5-667.227,543.5s441.562,216.572,531.677-20.334S27.164,377.662-9.891,269.973Z" transform="rotate(-180)" fill="none" stroke="#9b7de8" stroke-miterlimit="10" stroke-width="1.4"/><path d="M-9.083,247.9c-34.025-98.883-46.386-189.935-251.3-162.5S-371.653-41.084-547.17,10.752s-220.512,140.719-220.512,203.9S-864.6,499.058-612.67,499.058s405.457,198.863,488.2-18.671S24.943,346.781-9.083,247.9Z" transform="translate(34.996 -25.92) rotate(-180)" fill="none" stroke="#9b7de8" stroke-miterlimit="10" stroke-width="1.4"/><path d="M-8.144,221.945C-38.655,133.414-49.739,51.895-233.486,76.455S-333.264-36.783-490.65,9.626-688.384,135.613-688.384,192.177s-86.909,254.634,139,254.634,363.576,178.044,437.775-16.717S22.366,310.475-8.144,221.945Z" transform="translate(75.591 -56.044) rotate(-180)" fill="none" stroke="#9b7de8" stroke-miterlimit="10" stroke-width="1.4"/><path d="M-6.947,189.13C-32.974,113.689-42.429,44.222-199.17,65.151S-284.283-31.345-418.539,8.2-587.211,115.562-587.211,163.763-661.348,380.75-468.641,380.75-158.5,532.47-95.206,366.5,19.079,264.572-6.947,189.13Z" transform="translate(127.385 -94.575) rotate(-180)" fill="none" stroke="#9b7de8" stroke-miterlimit="10" stroke-width="1.4"/><path d="M-5.75,156.316C-27.293,93.964-35.119,36.55-164.854,53.848S-235.3-25.906-346.427,6.78-486.039,95.512-486.039,135.35-547.4,314.689-387.9,314.689s256.705,125.4,309.094-11.773S15.792,218.668-5.75,156.316Z" transform="translate(179.179 -133.105) rotate(-180)" fill="none" stroke="#9b7de8" stroke-miterlimit="10" stroke-width="1.4"/><path d="M-4.812,130.363c-18.028-52-24.577-99.881-133.146-85.455S-196.913-21.605-289.908,5.654s-116.834,74-116.834,107.224-51.352,149.563,82.13,149.563,214.824,104.577,258.665-9.819S13.215,182.363-4.812,130.363Z" transform="translate(219.774 -163.929) rotate(-180)" fill="none" stroke="#9b7de8" stroke-miterlimit="10" stroke-width="1.4"/><path d="M-3.745,101.725c-14.028-40.577-19.125-77.94-103.608-66.683s-45.876-51.9-118.24-30.63-90.914,57.744-90.914,83.669S-356.466,204.788-252.6,204.788s167.165,81.6,201.281-7.662S10.284,142.3-3.745,101.725Z" transform="translate(265.969 -197.556) rotate(-180)" fill="none" stroke="#9b7de8" stroke-miterlimit="10" stroke-width="1.4"/><path d="M-3.041,82.334C-14.433,49.492-18.572,19.251-87.18,28.362S-124.436-13.645-183.2,3.571s-73.831,46.737-73.831,67.72-32.451,94.461,51.9,94.461,135.754,66.048,163.459-6.2S8.351,115.176-3.041,82.334Z" transform="translate(296.065 -219.973) rotate(-180)" fill="none" stroke="#9b7de8" stroke-miterlimit="10" stroke-width="1.4"/><path d="M-2.256,61.154C-10.71,36.761-13.781,14.3-64.69,21.066s-27.645-31.2-71.25-18.414-54.784,34.714-54.784,50.3-24.079,70.161,38.511,70.161,100.733,49.058,121.29-4.606S6.2,85.548-2.256,61.154Z" transform="translate(330.361 -245.193) rotate(-180)" fill="none" stroke="#9b7de8" stroke-miterlimit="10" stroke-width="1.4"/><path d="M-1.448,39.079C-6.871,23.491-8.841,9.137-41.5,13.462S-59.239-6.477-87.216,1.695s-35.148,22.183-35.148,32.143-15.449,44.835,24.708,44.835,64.628,31.349,77.817-2.943S3.976,54.667-1.448,39.079Z" transform="translate(365.357 -271.114) rotate(-180)" fill="none" stroke="#9b7de8" stroke-miterlimit="10" stroke-width="1.4"/><path d="M-.979,26.55c-3.666-10.59-5-20.342-27.077-17.4S-40.045-4.4-58.956,1.152-82.715,16.222-82.715,22.989s-10.443,30.46,16.7,30.46,43.687,21.3,52.6-2S2.688,37.14-.979,26.55Z" transform="translate(385.655 -285.825) rotate(-180)" fill="none" stroke="#9b7de8" stroke-miterlimit="10" stroke-width="1.4"/></g></svg>