<?xml version="1.0" encoding="utf-8"?>
<!-- Generator: Adobe Illustrator 22.1.0, SVG Export Plug-In . SVG Version: 6.00 Build 0)  -->
<svg version="1.1" xmlns="http://www.w3.org/2000/svg" xmlns:xlink="http://www.w3.org/1999/xlink" x="0px" y="0px"
	 viewBox="0 0 1440 948.2" style="enable-background:new 0 0 1440 948.2;" preserveAspectRatio="none" xml:space="preserve">
<style type="text/css">
	.st0{clip-path:url(#SVGID_2_);}
	.st1{fill:#F5F2FC;}
	.st2{fill:#EDE7FA;}
</style>
<g id="Слой_1">
</g>
<g id="Слой_2">
	<g>
		<defs>
			<rect id="SVGID_1_" width="1440" height="948.2"/>
		</defs>
		<clipPath id="SVGID_2_">
			<use xlink:href="#SVGID_1_"  style="overflow:visible;"/>
		</clipPath>
		<g transform="translate(1769.969) rotate(180)" class="st0">
			<path class="st1" d="M1905.3-100.2c61.5-26.4,41,48.8-228.8,89.4S1264.2-57.5,1060-63S779.9-6.4,615.7-0.5S248.3-60.4,228.3-77.8
				s-64.2-852.9-64.2-852.9s118.2,82.9,302.9,82.9s78.2-101.2,390.7-98.8c186.5,0,200.4,71.3,383.1,71.3s135.2-85.3,375.3-71.3
				s188.9,51.5,188.9,51.5S1843.8-73.8,1905.3-100.2z"/>
			<path class="st2" d="M267.3-105.1c-61.6-26.4,8.3,159.9,295.3,80s385.5,5.5,589.7,0s330.1-57.8,425.3-53.6s216.1,71,236.2,53.6
				s-6.2-875.3-6.2-875.3s41.5,26.4-143.2,26.4s-162.9-46.2-349.4-46.2s-200.5,39.6-383.1,39.6S666-920.2,556.6-920.2
				s-335.5,23.3-335.5,23.3S328.8-78.7,267.3-105.1z"/>
		</g>
	</g>
</g>
</svg>
