<svg xmlns="http://www.w3.org/2000/svg" width="1358.997" height="955.875" viewBox="0 0 1358.997 955.875"><g transform="translate(163.52 -4804.221)"><g transform="translate(1196.418 5259.742) rotate(-146)" opacity="0.1"><g transform="translate(1.053 -0.965)" opacity="0.7"><path d="M-9.394,256.054C-44.588,153.918-57.374,59.87-269.324,88.205s-115.093-130.642-296.638-77.1S-794.047,156.454-794.047,221.712-894.3,515.479-633.712,515.479s419.382,205.406,504.97-19.286S25.8,358.191-9.394,256.054Z" transform="translate(0.541 -0.674) rotate(180)" fill="none" stroke="#9b7de8" stroke-miterlimit="10" stroke-width="2.14"/><path d="M-8.627,235.079c-32.32-93.77-44.061-180.113-238.7-154.1S-353.023-38.96-519.742,10.2-729.2,143.638-729.2,203.549s-92.062,269.7,147.241,269.7,385.133,188.58,463.731-17.706S23.692,328.849-8.627,235.079Z" transform="translate(33.739 -25.303) rotate(180)" fill="none" stroke="#9b7de8" stroke-miterlimit="10" stroke-width="2.14"/><path d="M-7.736,210.456C-36.718,126.508-47.247,49.208-221.787,72.5S-316.565-34.879-466.066,9.128s-187.827,119.465-187.827,173.1-82.555,241.453,132.035,241.453S-176.5,592.508-106.018,407.83,21.246,294.4-7.736,210.456Z" transform="translate(72.291 -54.215) rotate(180)" fill="none" stroke="#9b7de8" stroke-miterlimit="10" stroke-width="2.14"/><path d="M-6.6,179.449c-24.717-71.58-33.7-137.49-182.551-117.632S-269.98-29.74-397.481,7.783s-160.186,101.864-160.186,147.6-70.406,205.878,112.605,205.878,294.537,143.953,354.646-13.516S18.119,251.028-6.6,179.449Z" transform="translate(121.553 -90.624) rotate(180)" fill="none" stroke="#9b7de8" stroke-miterlimit="10" stroke-width="2.14"/><path d="M-5.459,148.441C-25.911,89.23-33.342,34.708-156.512,51.135S-223.4-24.6-328.9,6.438-461.442,90.7-461.442,128.532s-58.258,170.3,93.175,170.3,243.715,119.079,293.452-11.18S14.993,207.653-5.459,148.441Z" transform="translate(170.814 -127.032) rotate(180)" fill="none" stroke="#9b7de8" stroke-miterlimit="10" stroke-width="2.14"/><path d="M-4.568,123.818C-21.683,74.429-27.9,28.951-130.969,42.653S-186.938-20.521-275.221,5.37-386.136,75.655-386.136,107.211s-48.75,142.054,77.969,142.054,203.941,99.327,245.561-9.326S12.546,173.207-4.568,123.818Z" transform="translate(209.366 -155.945) rotate(180)" fill="none" stroke="#9b7de8" stroke-miterlimit="10" stroke-width="2.14"/><path d="M-3.554,96.459c-13.313-38.476-18.15-73.9-98.325-63.231S-145.416-15.986-214.09,4.184-300.37,58.938-300.37,83.521s-37.922,110.666,60.651,110.666S-81.076,271.566-48.7,186.922,9.759,134.935-3.554,96.459Z" transform="translate(253.273 -188.07) rotate(180)" fill="none" stroke="#9b7de8" stroke-miterlimit="10" stroke-width="2.14"/><path d="M-2.885,78.219c-10.81-31.2-14.737-59.93-79.837-51.274s-35.351-39.908-91.112-23.552-70.056,44.4-70.056,64.336-30.791,89.74,49.247,89.74,128.812,62.747,155.1-5.891S7.924,109.42-2.885,78.219Z" transform="translate(282.187 -209.486) rotate(180)" fill="none" stroke="#9b7de8" stroke-miterlimit="10" stroke-width="2.14"/><path d="M-2.143,58.156c-8.028-23.2-10.945-44.558-59.294-38.122S-87.691-9.638-129.1,2.522s-52.03,33.012-52.03,47.833S-204,117.077-144.559,117.077s95.667,46.652,115.191-4.38S5.885,81.353-2.143,58.156Z" transform="translate(314.314 -233.045) rotate(180)" fill="none" stroke="#9b7de8" stroke-miterlimit="10" stroke-width="2.14"/><path d="M-1.376,37.18C-6.53,22.35-8.4,8.693-39.442,12.808S-56.3-6.162-82.884,1.613s-33.4,21.105-33.4,30.581S-130.968,74.85-92.806,74.85s61.418,29.826,73.952-2.8S3.778,52.011-1.376,37.18Z" transform="translate(347.512 -257.674) rotate(180)" fill="none" stroke="#9b7de8" stroke-miterlimit="10" stroke-width="2.14"/><path d="M-.93,25.325c-3.485-10.1-4.751-19.4-25.74-16.6S-38.068-4.2-56.046,1.1s-22.587,14.375-22.587,20.83-9.928,29.055,15.878,29.055S-21.225,71.3-12.749,49.075,2.555,35.426-.93,25.325Z" transform="translate(366.788 -271.595) rotate(180)" fill="none" stroke="#9b7de8" stroke-miterlimit="10" stroke-width="2.14"/></g></g><g transform="translate(-163 5081)" opacity="0.1"><path d="M9.2,250.811C43.656,150.766,56.174,58.644,263.692,86.4S376.378-41.567,554.126,10.878,777.44,153.25,777.44,217.171s98.153,287.751-156.982,287.751-410.612,201.2-494.41-18.891S-25.26,350.856,9.2,250.811Z" fill="none" stroke="#9b7de8" stroke-miterlimit="10" stroke-width="1.3"/><path d="M8.446,230.3C40.086,138.438,51.581,53.849,242.131,79.335S345.6-38.168,508.817,9.989,713.872,140.719,713.872,199.414,804,463.636,569.726,463.636,192.688,648.385,115.742,446.29-23.194,322.167,8.446,230.3Z" transform="translate(32.543 24.081)" fill="none" stroke="#9b7de8" stroke-miterlimit="10" stroke-width="1.3"/><path d="M7.573,206.192C35.946,123.945,46.253,48.211,217.12,71.029S309.9-34.172,456.259,8.943,640.133,125.987,640.133,178.536,720.95,415.1,510.876,415.1,172.785,580.5,103.787,399.567-20.8,288.439,7.573,206.192Z" transform="translate(70.293 52.066)" fill="none" stroke="#9b7de8" stroke-miterlimit="10" stroke-width="1.3"/><path d="M6.46,175.706c24.2-70.087,32.995-134.623,178.749-115.179S264.357-29.12,389.2,7.621s156.85,99.739,156.85,144.519,68.94,201.585-110.26,201.585S147.39,494.676,88.533,340.491-17.742,245.793,6.46,175.706Z" transform="translate(118.456 87.862)" fill="none" stroke="#9b7de8" stroke-miterlimit="10" stroke-width="1.3"/><path d="M5.347,145.221C25.38,87.294,32.657,33.955,153.3,50.026S218.81-24.068,322.145,6.3,451.971,88.733,451.971,125.743s57.062,166.61-91.263,166.61S122,408.849,73.279,281.415-14.685,203.148,5.347,145.221Z" transform="translate(166.62 123.657)" fill="none" stroke="#9b7de8" stroke-miterlimit="10" stroke-width="1.3"/><path d="M4.475,121.11C21.239,72.8,27.329,28.318,128.288,41.72s54.823-61.792,141.3-36.467S378.231,74,378.231,104.866s47.752,138.947-76.373,138.947-199.766,97.154-240.534-9.122S-12.289,169.419,4.475,121.11Z" transform="translate(204.37 152.294)" fill="none" stroke="#9b7de8" stroke-miterlimit="10" stroke-width="1.3"/><path d="M3.482,94.5c13.045-37.7,17.784-72.408,96.346-61.95S142.488-15.662,209.779,4.1s84.542,53.645,84.542,77.73,37.158,108.424-59.43,108.424S79.443,266.064,47.719,183.135-9.563,132.2,3.482,94.5Z" transform="translate(247.326 183.534)" fill="none" stroke="#9b7de8" stroke-miterlimit="10" stroke-width="1.3"/><path d="M2.828,76.49C13.422,45.979,17.27,17.885,81.07,26.349s34.644-39.026,89.291-23.032,68.656,43.42,68.656,62.914,30.176,87.756-48.263,87.756-126.239,61.36-152-5.761S-7.766,107,2.828,76.49Z" transform="translate(275.313 204.36)" fill="none" stroke="#9b7de8" stroke-miterlimit="10" stroke-width="1.3"/><path d="M2.1,56.814C9.959,34.151,12.815,13.284,60.155,19.571S85.862-9.416,126.411,2.464s50.944,32.25,50.944,46.729,22.391,65.181-35.812,65.181S47.872,159.95,28.755,110.1-5.762,79.476,2.1,56.814Z" transform="translate(307.205 227.79)" fill="none" stroke="#9b7de8" stroke-miterlimit="10" stroke-width="1.3"/><path d="M1.346,36.305C6.39,21.824,8.222,8.489,38.594,12.506S55.087-6.017,81.1,1.575s32.685,20.609,32.685,29.861,14.366,41.652-22.976,41.652-60.1,29.124-72.362-2.734S-3.7,50.787,1.346,36.305Z" transform="translate(339.748 251.871)" fill="none" stroke="#9b7de8" stroke-miterlimit="10" stroke-width="1.3"/><path d="M.91,24.665C4.319,14.827,5.558,5.767,26.089,8.5S37.238-4.088,54.824,1.07s22.094,14,22.094,20.287,9.711,28.3-15.531,28.3S20.762,69.442,12.471,47.8-2.5,34.5.91,24.665Z" transform="translate(358.623 265.538)" fill="none" stroke="#9b7de8" stroke-miterlimit="10" stroke-width="1.3"/></g></g></svg>