<svg id="Слой_1" xmlns="http://www.w3.org/2000/svg" xmlns:xlink="http://www.w3.org/1999/xlink" preserveAspectRatio="none" viewBox="0 0 1518 868.2">
    <style>
        .st0{clip-path:url(#SVGID_2_)}.st1{fill:#f5f2fc}.st2{fill:#ede7fa}
    </style>
    <defs>
        <path id="SVGID_1_" d="M0 0h1518v868.2H0z"/>
    </defs>
    <clipPath id="SVGID_2_">
        <use xlink:href="#SVGID_1_" overflow="visible"/>
    </clipPath>
    <g class="st0">
        <path class="st1" d="M1618.3 92c61.5 24.2 41-44.6-228.8-81.9S977.2 52.9 773 57.9 492.9 6.1 328.7.7-38.7 55.6-58.7 71.5s-64.2 781-64.2 781S-4.7 776.6 180 776.6s78.2 92.7 390.7 90.5c186.5 0 200.4-65.2 383.1-65.2s135.2 78.1 375.3 65.2S1518 820 1518 820s38.8-752.2 100.3-728z" transform="translate(-.083 -.273)"/>
        <path class="st2" d="M-19.3 97.1c-61.6 24.1 8.3-146 295.3-73s385.5-5 589.7 0S1195.9 76.8 1291 73s216.1-64.8 236.2-48.9-6.2 798.8-6.2 798.8 41.5-24.1-143.2-24.1-162.9 42.2-349.4 42.2-200.4-36.1-383.1-36.1S379.5 841 270 841s-335.5-21.3-335.5-21.3S42.3 73-19.3 97.1z" transform="translate(-.083 -.273)"/>
    </g>
</svg>
