<svg xmlns="http://www.w3.org/2000/svg" width="857.243" height="635.212" viewBox="0 0 857.243 635.212">
    <g opacity=".1" fill="none" stroke="#9b7de8" stroke-miterlimit="10" stroke-width="1.4">
        <path d="M846.792 270.53C809.737 162.842 796.275 63.682 573.115 93.557S451.935-44.186 260.789 12.266 20.641 165.516 20.641 234.32-84.91 544.057 189.456 544.057s441.562 216.572 531.677-20.334S883.847 378.219 846.792 270.53z"/>
        <path d="M812.604 274.377c-34.025-98.883-46.386-189.935-251.3-162.5S450.034-14.607 274.517 37.229 54.005 177.948 54.005 241.129s-96.918 284.406 155.012 284.406 405.457 198.863 488.2-18.671S846.63 373.258 812.604 274.377z"/>
        <path d="M772.948 278.546c-30.511-88.531-41.595-170.05-225.342-145.49S447.828 19.818 290.442 66.227 92.708 192.214 92.708 248.778s-86.909 254.634 139 254.634 363.576 178.044 437.775-16.717 133.975-119.619 103.465-208.149z"/>
        <path d="M722.351 284.262c-26.027-75.441-35.482-144.908-192.223-123.979s-85.113-96.496-219.369-56.951-168.672 107.362-168.672 155.563-74.137 216.987 118.57 216.987 310.141 151.72 373.435-14.25 114.285-101.928 88.259-177.37z"/>
        <path d="M671.754 289.978c-21.543-62.352-29.369-119.766-159.104-102.468s-70.446-79.754-181.573-47.068-139.612 88.732-139.612 128.57-61.361 179.339 98.139 179.339 256.705 125.4 309.094-11.773 94.598-84.248 73.056-146.6z"/>
        <path d="M632.097 294.849c-18.028-52-24.577-99.881-133.146-85.455s-58.955-66.513-151.95-39.254-116.834 74-116.834 107.224-51.352 149.563 82.13 149.563 214.824 104.577 258.665-9.819 79.162-70.259 61.135-122.259z"/>
        <path d="M586.969 299.838c-14.028-40.577-19.125-77.94-103.608-66.683s-45.876-51.9-118.24-30.63-90.914 57.744-90.914 83.669-39.959 116.707 63.907 116.707 167.165 81.6 201.281-7.662 61.603-54.826 47.574-95.401z"/>
        <path d="M557.577 302.864c-11.392-32.842-15.531-63.083-84.139-53.972s-37.256-42.007-96.02-24.791-73.831 46.737-73.831 67.72-32.451 94.461 51.9 94.461 135.754 66.048 163.459-6.2 50.023-44.376 38.631-77.218z"/>
        <path d="M524.066 306.904c-8.454-24.393-11.525-46.854-62.434-40.088s-27.645-31.2-71.25-18.414-54.784 34.714-54.784 50.3-24.079 70.161 38.511 70.161 100.733 49.058 121.29-4.606 37.123-32.959 28.667-57.353z"/>
        <path d="M489.878 310.75c-5.423-15.588-7.393-29.942-40.052-25.617s-17.739-19.939-45.716-11.767-35.148 22.183-35.148 32.143-15.449 44.835 24.708 44.835 64.628 31.349 77.817-2.943 23.815-21.063 18.391-36.651z"/>
        <path d="M470.049 312.932c-3.666-10.59-5-20.342-27.077-17.4s-11.989-13.55-30.9-7.998-23.759 15.07-23.759 21.837-10.443 30.46 16.7 30.46 43.687 21.3 52.6-2 16.103-14.309 12.436-24.899z"/>
    </g>
</svg>
