<svg xmlns="http://www.w3.org/2000/svg" xmlns:xlink="http://www.w3.org/1999/xlink" viewBox="0 0 1440 948.2" preserveAspectRatio="none">
    <style>
        .st0{clip-path:url(#SVGID_2_)}.st1{fill:#f5f2fc}.st2{fill:#ede7fa}
    </style>
    <g id="Слой_2">
        <defs>
            <path id="SVGID_1_" d="M0 0h1440v948.2H0z"/>
        </defs>
        <clipPath id="SVGID_2_">
            <use xlink:href="#SVGID_1_" overflow="visible"/>
        </clipPath>
        <g class="st0">
            <path class="st1" d="M1905.3-100.2c61.5-26.4 41 48.8-228.8 89.4S1264.2-57.5 1060-63 779.9-6.4 615.7-.5 248.3-60.4 228.3-77.8s-64.2-852.9-64.2-852.9 118.2 82.9 302.9 82.9 78.2-101.2 390.7-98.8c186.5 0 200.4 71.3 383.1 71.3s135.2-85.3 375.3-71.3 188.9 51.5 188.9 51.5 38.8 821.3 100.3 794.9z" transform="rotate(180 884.985 0)"/>
            <path class="st2" d="M267.3-105.1c-61.6-26.4 8.3 159.9 295.3 80s385.5 5.5 589.7 0 330.1-57.8 425.3-53.6 216.1 71 236.2 53.6-6.2-875.3-6.2-875.3 41.5 26.4-143.2 26.4-162.9-46.2-349.4-46.2-200.5 39.6-383.1 39.6-265.9-39.6-375.3-39.6-335.5 23.3-335.5 23.3 107.7 818.2 46.2 791.8z" transform="rotate(180 884.985 0)"/>
        </g>
    </g>
</svg>
