<?xml version="1.0" encoding="UTF-8"?><!DOCTYPE svg PUBLIC "-//W3C//DTD SVG 1.1//EN" "http://www.w3.org/Graphics/SVG/1.1/DTD/svg11.dtd"><svg xmlns="http://www.w3.org/2000/svg" xmlns:xlink="http://www.w3.org/1999/xlink"><defs>
        <path id="a" d="M-135.717 1381.747c32.863-95.38 44.803-183.207 242.721-156.746 197.919 26.46 107.474-122 277-72s212.985 135.734 212.985 196.675c0 60.94 93.613 274.335-149.72 274.335-243.334 0-391.619 191.819-471.54-18.01-79.922-209.83-144.31-128.874-111.446-224.254z"/>
        <path id="b" d="M-105.434 1385.159c30.18-87.567 41.144-168.199 222.9-143.906 181.755 24.293 98.696-112.006 254.378-66.102 155.68 45.904 195.59 124.615 195.59 180.564 0 55.948 85.968 251.862-137.493 251.862-223.46 0-359.636 176.106-433.03-16.535-73.395-192.64-132.525-118.316-102.345-205.883z"/>
        <path id="c" d="M-70.266 1389.164c27.063-78.394 36.895-150.58 199.88-128.832 162.985 21.749 88.504-100.274 228.108-59.178 139.603 41.096 175.392 111.562 175.392 161.65 0 50.089 77.09 225.481-123.294 225.481-200.384 0-322.496 157.66-388.31-14.802-65.816-172.463-118.84-105.924-91.776-184.319z"/>
        <path id="d" d="M-25.329 1394.208c23.08-66.844 31.466-128.395 170.466-109.85 139 18.544 75.48-85.501 194.54-50.46 119.06 35.041 149.582 95.126 149.582 137.834 0 42.709 65.745 192.26-105.15 192.26-170.896 0-275.038 134.431-331.168-12.622-56.13-147.052-101.35-90.317-78.27-157.162z"/>
        <path id="e" d="M19.608 1399.252c19.098-55.294 26.036-106.21 141.052-90.87 115.016 15.34 62.456-70.726 160.972-41.74 98.516 28.987 123.772 78.689 123.772 114.018 0 35.329 54.4 159.039-87.007 159.039-141.408 0-227.58 111.202-274.025-10.441-46.445-121.643-83.862-74.711-64.764-130.006z"/>
        <path id="f" d="M54.776 1403.258c15.981-46.123 21.787-88.592 118.033-75.797 96.245 12.796 52.263-58.994 134.701-34.816 82.439 24.178 103.573 65.636 103.573 95.104 0 29.469 45.522 132.658-72.808 132.658-118.33 0-190.44 92.756-229.304-8.709-38.865-101.465-70.176-62.318-54.195-108.44z"/>
        <path id="g" d="M94.828 1407.708c12.432-35.93 16.948-69.016 91.816-59.048 74.869 9.968 40.655-45.959 104.783-27.123 64.128 18.835 80.567 51.133 80.567 74.09s35.412 103.345-56.635 103.345c-92.048 0-148.14 72.26-178.373-6.785-30.233-79.045-54.59-48.548-42.158-84.479z"/>
        <path id="h" d="M121.204 1410.675c10.095-29.137 13.762-55.966 74.552-47.882 60.79 8.083 33.01-37.269 85.08-21.995 52.07 15.274 65.418 41.464 65.418 60.08s28.752 83.804-45.987 83.804c-74.74 0-120.284 58.596-144.832-5.502-24.548-64.098-44.325-39.368-34.23-68.505z"/>
        <path id="i" d="M150.511 1413.939c7.497-21.663 10.22-41.61 55.369-35.6 45.148 6.01 24.516-27.71 63.187-16.354 38.672 11.357 48.586 30.829 48.586 44.67 0 13.84 21.354 62.307-34.154 62.307s-89.334 43.567-107.565-4.09c-18.232-47.657-32.92-29.27-25.423-50.933z"/>
        <path id="j" d="M180.795 1417.35c4.813-13.849 6.561-26.602 35.546-22.76 28.985 3.843 15.74-17.714 40.566-10.454 24.827 7.26 31.191 19.71 31.191 28.558 0 8.849 13.71 39.835-21.926 39.835-35.636 0-57.352 27.853-69.056-2.615-11.705-30.469-21.134-18.713-16.321-32.563z"/>
        <path id="k" d="M198.379 1419.28c3.254-9.434 4.437-18.12 24.036-15.503 19.6 2.617 10.643-12.066 27.43-7.121 16.789 4.945 21.092 13.424 21.092 19.452 0 6.027 9.27 27.132-14.826 27.132-24.097 0-38.781 18.972-46.696-1.781-7.914-20.753-14.29-12.746-11.036-22.18z"/>
    </defs><symbol id="icon-waved-oval" viewBox="0 0 762 565">
    
    <use fill-opacity="0" stroke-miterlimit="50" stroke-width="2" xlink:href="#a" transform="translate(146 -1141)"/>
    <use fill-opacity="0" stroke-miterlimit="50" stroke-width="2" xlink:href="#b" transform="translate(146 -1141)"/>
    <use fill-opacity="0" stroke-miterlimit="50" stroke-width="2" xlink:href="#c" transform="translate(146 -1141)"/>
    <use fill-opacity="0" stroke-miterlimit="50" stroke-width="2" xlink:href="#d" transform="translate(146 -1141)"/>
    <use fill-opacity="0" stroke-miterlimit="50" stroke-width="2" xlink:href="#e" transform="translate(146 -1141)"/>
    <use fill-opacity="0" stroke-miterlimit="50" stroke-width="2" xlink:href="#f" transform="translate(146 -1141)"/>
    <use fill-opacity="0" stroke-miterlimit="50" stroke-width="2" xlink:href="#g" transform="translate(146 -1141)"/>
    <use fill-opacity="0" stroke-miterlimit="50" stroke-width="2" xlink:href="#h" transform="translate(146 -1141)"/>
    <use fill-opacity="0" stroke-miterlimit="50" stroke-width="2" xlink:href="#i" transform="translate(146 -1141)"/>
    <use fill-opacity="0" stroke-miterlimit="50" stroke-width="2" xlink:href="#j" transform="translate(146 -1141)"/>
    <use fill-opacity="0" stroke-miterlimit="50" stroke-width="2" xlink:href="#k" transform="translate(146 -1141)"/>
</symbol></svg>