<svg xmlns="http://www.w3.org/2000/svg" width="1358.997" height="955.875" viewBox="0 0 1358.997 955.875">
    <g opacity=".1">
        <g opacity=".7" fill="none" stroke="#9b7de8" stroke-miterlimit="10" stroke-width="2.14">
            <path d="M1206.728 663.014c27.937-104.355 69.928-189.474-121.631-284.504s-22.363-172.667-202.81-229.797-270.37-7.044-306.862 47.058-247.386 187.483-31.348 333.202S776.899 933.777 973.5 795.359s205.291-27.99 233.228-132.345z"/>
            <path d="M1177.799 647.908c25.64-95.812 64.19-173.96-111.72-261.234s-20.557-158.539-186.263-211.011-248.266-6.502-281.768 43.166S370.91 390.94 569.302 524.757 783.139 896.46 963.653 769.393s188.504-25.674 214.146-121.485z"/>
            <path d="M1144.178 630.404c22.916-85.803 57.413-155.775-100.312-234.067s-18.53-142.02-167.08-189.136-222.52-5.991-252.512 38.474-203.46 154.01-25.556 274.007 191.907 333.086 353.61 219.394 168.936-22.873 191.85-108.672z"/>
            <path d="M1101.259 607.97c19.536-73.163 48.945-132.829-85.563-199.602s-15.812-121.103-142.498-161.293-189.762-5.126-215.337 32.791-173.495 131.31-21.772 233.649 163.685 284.045 301.573 187.11 144.063-19.49 163.597-92.654z"/>
            <path d="M1058.346 585.539c16.155-60.525 40.483-109.88-70.816-165.138s-13.102-100.19-117.922-133.454-157-4.26-178.156 27.104S547.923 422.66 673.467 507.34 808.927 742.344 923 662.167s119.19-16.102 135.345-76.628z"/>
            <path d="M1024.725 568.036c13.429-50.516 33.705-91.696-59.405-137.972s-11.074-83.67-98.742-111.573-131.255-3.754-148.901 22.407-119.851 90.507-14.796 161.368S816.412 698.654 911.675 631.85s99.62-13.299 113.05-63.814z"/>
            <path d="M986.5 548.002c10.478-39.343 26.277-71.416-46.157-107.404s-8.574-65.146-76.786-86.826-102.148-2.854-115.894 17.526-93.323 70.54-11.602 125.662 88.251 152.862 162.425 100.793 77.535-10.409 88.014-49.751z"/>
            <path d="M961.307 534.84c8.485-31.91 21.295-57.925-37.515-87.152s-6.991-52.853-62.366-70.475-82.907-2.365-94.055 14.162-75.709 57.18-9.354 101.937 71.702 124.05 131.878 81.847 62.926-8.408 71.412-40.319z"/>
            <path d="M933.333 520.188c6.318-23.723 15.843-43.06-27.84-64.761s-5.172-39.28-46.302-52.355-61.595-1.726-69.883 10.56-56.27 42.527-6.991 75.766 53.224 92.173 97.947 60.783 46.753-6.272 53.07-29.993z"/>
            <path d="M904.404 505.082c4.02-15.177 10.106-27.545-17.93-41.492s-3.368-25.154-29.755-33.574-39.491-1.18-44.79 6.676-36.027 27.152-4.389 48.492 34.24 59.072 62.875 39.033 29.968-3.958 33.989-19.135z"/>
            <path d="M887.638 496.265c2.758-10.322 6.91-18.74-12.057-28.156s-2.222-17.089-20.09-22.748-26.764-.713-30.373 4.638-24.478 18.536-3.084 32.967 23.07 40.065 42.525 26.38 20.32-2.758 23.079-13.081z"/>
        </g>
    </g>
    <g opacity=".1" fill="none" stroke="#9b7de8" stroke-miterlimit="10" stroke-width="1.3">
        <path d="M9.72 527.59c34.456-100.045 46.974-192.167 254.492-164.411s112.686-127.967 290.434-75.522S777.96 430.029 777.96 493.95s98.153 287.751-156.982 287.751-410.612 201.2-494.41-18.891S-24.74 627.635 9.72 527.59z"/>
        <path d="M41.509 531.16c31.64-91.862 43.135-176.451 233.685-150.965s103.469-117.503 266.686-69.346 205.055 130.73 205.055 189.425 90.128 264.222-144.146 264.222-377.038 184.749-453.984-17.346S9.869 623.027 41.509 531.16z"/>
        <path d="M78.386 535.037c28.373-82.247 38.68-157.981 209.547-135.163s92.78-105.201 239.139-62.086 183.874 117.044 183.874 169.593 80.817 236.564-129.257 236.564-338.091 165.4-407.089-15.533S50.013 617.284 78.386 535.037z"/>
        <path d="M125.436 540.347c24.2-70.087 32.995-134.623 178.749-115.179s79.148-89.647 203.991-52.906 156.85 99.739 156.85 144.519 68.94 201.585-110.26 201.585-288.4 140.951-347.257-13.234-106.275-94.698-82.073-164.785z"/>
        <path d="M172.487 545.657c20.033-57.927 27.31-111.266 147.953-95.195s65.51-74.094 168.845-43.726 129.826 82.433 129.826 119.443 57.062 166.61-91.263 166.61-238.708 116.496-287.429-10.938-87.964-78.267-67.932-136.194z"/>
        <path d="M209.365 550.183c16.764-48.31 22.854-92.792 123.813-79.39s54.823-61.792 141.3-36.467 108.643 68.747 108.643 99.613 47.752 138.947-76.373 138.947-199.766 97.154-240.534-9.122-73.613-65.272-56.849-113.581z"/>
        <path d="M251.328 554.813c13.045-37.7 17.784-72.408 96.346-61.95s42.66-48.212 109.951-28.45 84.542 53.645 84.542 77.73 37.158 108.424-59.43 108.424-155.448 75.81-187.172-7.119-57.282-50.935-44.237-88.635z"/>
        <path d="M278.661 557.629c10.594-30.511 14.442-58.605 78.242-50.141s34.644-39.026 89.291-23.032 68.656 43.42 68.656 62.914 30.176 87.756-48.263 87.756-126.239 61.36-152-5.761-46.52-41.226-35.926-71.736z"/>
        <path d="M309.825 561.383c7.859-22.663 10.715-43.53 58.055-37.243s25.707-28.987 66.256-17.107 50.944 32.25 50.944 46.729 22.391 65.181-35.812 65.181-93.671 45.576-112.788-4.274-34.517-30.624-26.655-53.286z"/>
        <path d="M341.614 564.955c5.044-14.481 6.876-27.816 37.248-23.799s16.493-18.523 42.506-10.931 32.685 20.609 32.685 29.861 14.366 41.652-22.976 41.652-60.1 29.124-72.362-2.734-22.147-19.567-17.101-34.049z"/>
        <path d="M360.053 566.982c3.409-9.838 4.648-18.898 25.179-16.165s11.149-12.588 28.735-7.43 22.094 14 22.094 20.287 9.711 28.3-15.531 28.3-40.625 19.785-48.916-1.857-14.971-13.3-11.561-23.135z"/>
    </g>
</svg>
